<?xml version="1.0" encoding="UTF-8"?>
<svg version="1.1" xmlns="http://www.w3.org/2000/svg" width="1024" height="1024">
<path d="M0 0 C337.92 0 675.84 0 1024 0 C1024 337.92 1024 675.84 1024 1024 C686.08 1024 348.16 1024 0 1024 C0 686.08 0 348.16 0 0 Z " fill="#FAFAFB" transform="translate(0,0)"/>
<path d="M0 0 C14.70842303 2.4773721 27.15456395 7.90136875 37.9453125 18.38671875 C40.81158935 20.6372365 43.45112838 20.99482271 46.98828125 21.51953125 C50.33216568 22.31816773 51.93729106 24.37473408 54 27 C55.65624351 29.8804235 56.3273707 32.35171002 56.8125 35.625 C57.50652565 39.35538786 58.51006955 42.29050367 60.3125 45.625 C65.38591592 55.19975527 70.11611163 68.0481546 69 79 C68.04956055 81.12890625 68.04956055 81.12890625 66 83 C62.98826146 83.5758337 60.0132173 83.46403721 56.95703125 83.390625 C55.63163582 83.38213531 55.63163582 83.38213531 54.27946472 83.37347412 C51.45659257 83.35107867 48.63498862 83.30087727 45.8125 83.25 C43.89910687 83.22993906 41.98569385 83.21168758 40.07226562 83.1953125 C35.38102158 83.15120357 30.69072582 83.08215485 26 83 C26.0018986 83.61634426 26.0037972 84.23268852 26.00575334 84.86770988 C26.11758024 121.37609017 26.2034006 157.88444519 26.25532665 194.39296161 C26.26158038 198.77401896 26.26805197 203.15507597 26.2746582 207.53613281 C26.27662553 208.84444822 26.27662553 208.84444822 26.2786326 210.17919424 C26.30040469 224.31237269 26.3398361 238.44544972 26.38576398 252.57856795 C26.43247853 267.07438001 26.46028479 281.57013886 26.47044247 296.06602311 C26.47731205 305.01487464 26.49902892 313.96343954 26.53958233 322.91220286 C26.56595902 329.04402512 26.57401256 335.17569863 26.56750689 341.30757353 C26.564296 344.84843174 26.56930742 348.38878821 26.59602737 351.9295578 C26.62475598 355.76440375 26.61497315 359.59859062 26.60127258 363.43353271 C26.62311889 365.12029102 26.62311889 365.12029102 26.64540654 366.84112525 C26.57266037 374.33197718 26.57266037 374.33197718 23.69353008 377.69055557 C20.12352019 379.4260957 16.9126601 379.57455755 13.0234375 379.53125 C11.87459579 379.53699036 11.87459579 379.53699036 10.70254517 379.54284668 C9.08374719 379.54556178 7.46490505 379.53822858 5.84619141 379.52148438 C3.4029393 379.5002429 0.96268708 379.52120434 -1.48046875 379.546875 C-14.56647754 379.57119083 -25.32234708 377.54534126 -35 368 C-45.00861483 356.18179186 -45.57847861 343.57189171 -45.48242188 328.83837891 C-45.48461081 326.91385624 -45.48861223 324.98933491 -45.49427795 323.06481934 C-45.5028066 318.94025314 -45.49911122 314.81594791 -45.4858551 310.69139481 C-45.46544748 304.16969598 -45.47552485 297.64825789 -45.4901123 291.1265564 C-45.51680915 277.29268054 -45.51013908 263.45889054 -45.5 249.625 C-45.48904955 234.66779011 -45.48378096 219.71071479 -45.51729441 204.753528 C-45.53067619 198.26935246 -45.524698 191.78556974 -45.50392914 185.30141759 C-45.49495731 181.27388805 -45.50240363 177.24651079 -45.51434135 173.21899414 C-45.51647558 171.35051333 -45.511731 169.48201023 -45.4996357 167.61356735 C-45.48406365 165.06469026 -45.49296876 162.51702414 -45.50793457 159.96817017 C-45.49220123 158.85733265 -45.49220123 158.85733265 -45.47615004 157.72405398 C-45.53957406 152.87998112 -46.55387636 150.40034787 -50 147 C-53.58617307 145.37028096 -57.78612058 145.86271155 -61.67089844 145.87402344 C-62.43891785 145.8721553 -63.20693726 145.87028717 -63.99822998 145.86836243 C-65.66350723 145.86436455 -67.32878995 145.86228415 -68.99407196 145.86190033 C-72.54143951 145.858475 -76.08862539 145.83709906 -79.63592911 145.81666946 C-86.23615168 145.77870913 -92.83617913 145.74738221 -99.43652344 145.74951172 C-104.03202143 145.75030077 -108.62685202 145.72685343 -113.2221756 145.6876297 C-114.96833543 145.67719809 -116.71457256 145.67562469 -118.46074677 145.68328094 C-136.14734256 145.75308337 -136.14734256 145.75308337 -142 140 C-146.43530267 135.51198665 -148.11216761 131.98575356 -148.17700195 125.67407227 C-148.18983719 124.58606827 -148.20267242 123.49806427 -148.21589661 122.37709045 C-148.22328354 121.20206467 -148.23067047 120.02703888 -148.23828125 118.81640625 C-148.246353 117.60935532 -148.25442474 116.40230438 -148.26274109 115.15867615 C-148.27657766 112.60408972 -148.28730172 110.04948484 -148.29516602 107.49487305 C-148.31241618 103.58151531 -148.35631215 99.66899413 -148.40039062 95.75585938 C-148.41051418 93.27604789 -148.41903134 90.79622921 -148.42578125 88.31640625 C-148.44328934 87.14340469 -148.46079742 85.97040314 -148.47883606 84.76185608 C-148.47591049 83.67069992 -148.47298492 82.57954376 -148.4699707 81.45532227 C-148.47583694 80.49618423 -148.48170319 79.5370462 -148.48774719 78.54884338 C-147.85824262 75.25921183 -146.55113746 74.09574106 -144 72 C-140.9043508 70.4521754 -137.63952329 70.86680434 -134.24264526 70.87974548 C-133.43239305 70.87889106 -132.62214083 70.87803663 -131.78733552 70.87715632 C-129.05725757 70.87550193 -126.32724031 70.88102223 -123.59716797 70.88647461 C-121.64615887 70.88675652 -119.69514966 70.88659868 -117.74414062 70.8860321 C-112.43450181 70.88574426 -107.12488542 70.89163883 -101.81525183 70.89860606 C-96.27121436 70.90484184 -90.72717642 70.90544358 -85.18313599 70.90663147 C-74.67882171 70.90974412 -64.1745178 70.91795663 -53.6702081 70.92798096 C-41.71392142 70.93914414 -29.75763426 70.94465306 -17.80134368 70.94967639 C6.79910997 70.96013929 31.3995544 70.97773746 56 71 C55.59007812 69.84242188 55.18015625 68.68484375 54.7578125 67.4921875 C54.21351344 65.95313498 53.66924418 64.41407192 53.125 62.875 C52.72087891 61.73417969 52.72087891 61.73417969 52.30859375 60.5703125 C50.83208351 56.39286889 49.38505036 52.20893943 48 48 C46.93072266 48.10441406 46.93072266 48.10441406 45.83984375 48.2109375 C40.73042999 48.49976035 37.00851114 48.68488422 32.9375 45.3125 C30.40670235 42.69673552 28.66395605 40.65175828 28 37 C28.15544541 33.63719768 28.52135244 30.33112829 29 27 C18.90075569 19.24681908 8.98612299 14.8945845 -3.56884766 13.07519531 C-7.44967033 12.47844278 -10.21456113 11.86223042 -13 9 C-13.4375 6 -13.4375 6 -13 3 C-9.55715573 -1.51607659 -5.19866617 -0.56535495 0 0 Z " fill="#F8F8F8" transform="translate(475,366)"/>
<path d="M0 0 C14.70842303 2.4773721 27.15456395 7.90136875 37.9453125 18.38671875 C40.81158935 20.6372365 43.45112838 20.99482271 46.98828125 21.51953125 C50.33216568 22.31816773 51.93729106 24.37473408 54 27 C55.65624351 29.8804235 56.3273707 32.35171002 56.8125 35.625 C57.50652565 39.35538786 58.51006955 42.29050367 60.3125 45.625 C65.38591592 55.19975527 70.11611163 68.0481546 69 79 C68.04956055 81.12890625 68.04956055 81.12890625 66 83 C62.98826146 83.5758337 60.0132173 83.46403721 56.95703125 83.390625 C55.63163582 83.38213531 55.63163582 83.38213531 54.27946472 83.37347412 C51.45659257 83.35107867 48.63498862 83.30087727 45.8125 83.25 C43.89910687 83.22993906 41.98569385 83.21168758 40.07226562 83.1953125 C35.38102158 83.15120357 30.69072582 83.08215485 26 83 C26.0018986 83.61634426 26.0037972 84.23268852 26.00575334 84.86770988 C26.11758024 121.37609017 26.2034006 157.88444519 26.25532665 194.39296161 C26.26158038 198.77401896 26.26805197 203.15507597 26.2746582 207.53613281 C26.27662553 208.84444822 26.27662553 208.84444822 26.2786326 210.17919424 C26.30040469 224.31237269 26.3398361 238.44544972 26.38576398 252.57856795 C26.43247853 267.07438001 26.46028479 281.57013886 26.47044247 296.06602311 C26.47731205 305.01487464 26.49902892 313.96343954 26.53958233 322.91220286 C26.56595902 329.04402512 26.57401256 335.17569863 26.56750689 341.30757353 C26.564296 344.84843174 26.56930742 348.38878821 26.59602737 351.9295578 C26.62475598 355.76440375 26.61497315 359.59859062 26.60127258 363.43353271 C26.62311889 365.12029102 26.62311889 365.12029102 26.64540654 366.84112525 C26.57266037 374.33197718 26.57266037 374.33197718 23.69353008 377.69055557 C20.12352019 379.4260957 16.9126601 379.57455755 13.0234375 379.53125 C11.87459579 379.53699036 11.87459579 379.53699036 10.70254517 379.54284668 C9.08374719 379.54556178 7.46490505 379.53822858 5.84619141 379.52148438 C3.4029393 379.5002429 0.96268708 379.52120434 -1.48046875 379.546875 C-14.56647754 379.57119083 -25.32234708 377.54534126 -35 368 C-45.00861483 356.18179186 -45.57847861 343.57189171 -45.48242188 328.83837891 C-45.48461081 326.91385624 -45.48861223 324.98933491 -45.49427795 323.06481934 C-45.5028066 318.94025314 -45.49911122 314.81594791 -45.4858551 310.69139481 C-45.46544748 304.16969598 -45.47552485 297.64825789 -45.4901123 291.1265564 C-45.51680915 277.29268054 -45.51013908 263.45889054 -45.5 249.625 C-45.48904955 234.66779011 -45.48378096 219.71071479 -45.51729441 204.753528 C-45.53067619 198.26935246 -45.524698 191.78556974 -45.50392914 185.30141759 C-45.49495731 181.27388805 -45.50240363 177.24651079 -45.51434135 173.21899414 C-45.51647558 171.35051333 -45.511731 169.48201023 -45.4996357 167.61356735 C-45.48406365 165.06469026 -45.49296876 162.51702414 -45.50793457 159.96817017 C-45.49220123 158.85733265 -45.49220123 158.85733265 -45.47615004 157.72405398 C-45.53957406 152.87998112 -46.55387636 150.40034787 -50 147 C-53.58617307 145.37028096 -57.78612058 145.86271155 -61.67089844 145.87402344 C-62.43891785 145.8721553 -63.20693726 145.87028717 -63.99822998 145.86836243 C-65.66350723 145.86436455 -67.32878995 145.86228415 -68.99407196 145.86190033 C-72.54143951 145.858475 -76.08862539 145.83709906 -79.63592911 145.81666946 C-86.23615168 145.77870913 -92.83617913 145.74738221 -99.43652344 145.74951172 C-104.03202143 145.75030077 -108.62685202 145.72685343 -113.2221756 145.6876297 C-114.96833543 145.67719809 -116.71457256 145.67562469 -118.46074677 145.68328094 C-136.14734256 145.75308337 -136.14734256 145.75308337 -142 140 C-146.43530267 135.51198665 -148.11216761 131.98575356 -148.17700195 125.67407227 C-148.18983719 124.58606827 -148.20267242 123.49806427 -148.21589661 122.37709045 C-148.22328354 121.20206467 -148.23067047 120.02703888 -148.23828125 118.81640625 C-148.246353 117.60935532 -148.25442474 116.40230438 -148.26274109 115.15867615 C-148.27657766 112.60408972 -148.28730172 110.04948484 -148.29516602 107.49487305 C-148.31241618 103.58151531 -148.35631215 99.66899413 -148.40039062 95.75585938 C-148.41051418 93.27604789 -148.41903134 90.79622921 -148.42578125 88.31640625 C-148.44328934 87.14340469 -148.46079742 85.97040314 -148.47883606 84.76185608 C-148.47591049 83.67069992 -148.47298492 82.57954376 -148.4699707 81.45532227 C-148.47583694 80.49618423 -148.48170319 79.5370462 -148.48774719 78.54884338 C-147.85824262 75.25921183 -146.55113746 74.09574106 -144 72 C-140.9043508 70.4521754 -137.63952329 70.86680434 -134.24264526 70.87974548 C-133.43239305 70.87889106 -132.62214083 70.87803663 -131.78733552 70.87715632 C-129.05725757 70.87550193 -126.32724031 70.88102223 -123.59716797 70.88647461 C-121.64615887 70.88675652 -119.69514966 70.88659868 -117.74414062 70.8860321 C-112.43450181 70.88574426 -107.12488542 70.89163883 -101.81525183 70.89860606 C-96.27121436 70.90484184 -90.72717642 70.90544358 -85.18313599 70.90663147 C-74.67882171 70.90974412 -64.1745178 70.91795663 -53.6702081 70.92798096 C-41.71392142 70.93914414 -29.75763426 70.94465306 -17.80134368 70.94967639 C6.79910997 70.96013929 31.3995544 70.97773746 56 71 C55.59007812 69.84242188 55.18015625 68.68484375 54.7578125 67.4921875 C54.21351344 65.95313498 53.66924418 64.41407192 53.125 62.875 C52.72087891 61.73417969 52.72087891 61.73417969 52.30859375 60.5703125 C50.83208351 56.39286889 49.38505036 52.20893943 48 48 C46.93072266 48.10441406 46.93072266 48.10441406 45.83984375 48.2109375 C40.73042999 48.49976035 37.00851114 48.68488422 32.9375 45.3125 C30.40670235 42.69673552 28.66395605 40.65175828 28 37 C28.15544541 33.63719768 28.52135244 30.33112829 29 27 C18.90075569 19.24681908 8.98612299 14.8945845 -3.56884766 13.07519531 C-7.44967033 12.47844278 -10.21456113 11.86223042 -13 9 C-13.4375 6 -13.4375 6 -13 3 C-9.55715573 -1.51607659 -5.19866617 -0.56535495 0 0 Z M-137 83 C-137.07433795 88.87155408 -137.12869117 94.74283219 -137.16479492 100.61474609 C-137.17985098 102.61088841 -137.20030027 104.60699781 -137.22631836 106.60302734 C-137.26284161 109.47762185 -137.27975837 112.35177772 -137.29296875 115.2265625 C-137.30845261 116.11429352 -137.32393646 117.00202454 -137.33988953 117.91665649 C-137.34127338 123.04927679 -136.84522887 126.54776372 -134 131 C-131.54671178 133.45328822 -130.18634116 133.24403993 -126.83769226 133.27897644 C-125.76162468 133.27514702 -125.76162468 133.27514702 -124.66381836 133.27124023 C-123.52926712 133.27908035 -123.52926712 133.27908035 -122.37179565 133.28707886 C-120.72560138 133.29733536 -119.07937452 133.30310213 -117.43314934 133.30496025 C-114.8217798 133.30861906 -112.21079176 133.32533575 -109.59950256 133.34571838 C-102.17358527 133.40115249 -94.74760971 133.43170488 -87.3215332 133.45629883 C-82.78035294 133.47224577 -78.23943856 133.50254893 -73.69839668 133.54106331 C-71.97259933 133.55266131 -70.24675422 133.5586432 -68.52091789 133.55874443 C-49.20870867 133.56028672 -49.20870867 133.56028672 -40.6875 139.1875 C-35.217718 144.91169047 -33.39696108 150.58203415 -33.50793457 158.38035583 C-33.50325558 159.18530096 -33.49857659 159.99024608 -33.49375582 160.81958348 C-33.48288872 163.49651076 -33.50026317 166.17248352 -33.51757812 168.84936523 C-33.5153906 170.77680742 -33.51139133 172.70424826 -33.50572205 174.63168335 C-33.49717385 178.77266301 -33.5009172 182.91338314 -33.5141449 187.0543499 C-33.53451892 193.60631126 -33.52448796 200.15801229 -33.5098877 206.7099762 C-33.48088146 221.80120398 -33.49157949 236.89235471 -33.50258636 251.9835968 C-33.51226651 265.8154757 -33.5135194 279.64721841 -33.48270559 293.47907406 C-33.46934954 299.98806019 -33.47526719 306.4966544 -33.49607086 313.00561702 C-33.50507177 317.05956352 -33.49756931 321.11335973 -33.48565865 325.16729355 C-33.48353229 327.04215443 -33.48822302 328.91703781 -33.5003643 330.79186058 C-33.81572455 343.9739985 -33.81572455 343.9739985 -29 356 C-28.4225 356.9075 -27.845 357.815 -27.25 358.75 C-22.82535887 363.17464113 -17.37926959 366.87223674 -10.99731445 367.11352539 C-9.7980835 367.10828857 -8.59885254 367.10305176 -7.36328125 367.09765625 C-5.41518555 367.09282227 -5.41518555 367.09282227 -3.42773438 367.08789062 C-2.05598892 367.07953531 -0.68424413 367.07107037 0.6875 367.0625 C2.07096195 367.05748335 3.45442563 367.05292073 4.83789062 367.04882812 C8.22530395 367.03702529 11.61263033 367.02056019 15 367 C15.04573777 331.10891616 15.08099901 295.2178374 15.10213066 259.32673044 C15.10463219 255.09330853 15.10722083 250.85988667 15.10986328 246.62646484 C15.1103879 245.7836361 15.11091252 244.94080735 15.11145304 244.07243834 C15.12016516 230.41001017 15.13593955 216.74759875 15.15430559 203.08518054 C15.17298224 189.07527819 15.18411198 175.06538464 15.18817699 161.05547035 C15.1909267 152.40459912 15.19962384 143.75377526 15.21583293 135.10291861 C15.22637225 129.17764764 15.22960759 123.2524013 15.22700275 117.32712163 C15.22571668 113.90414092 15.22774322 110.48124323 15.23841095 107.05827713 C15.24828254 103.35422375 15.24599749 99.65037721 15.24050903 95.94631958 C15.24633472 94.85489784 15.2521604 93.76347611 15.25816262 92.63898098 C15.25418052 91.65268134 15.25019842 90.66638169 15.24609566 89.65019417 C15.2468551 88.79430454 15.24761454 87.93841492 15.24839699 87.05658925 C15.18760691 84.77612958 15.18760691 84.77612958 13 83 C10.28946475 82.70039782 10.28946475 82.70039782 7.06491089 82.75949097 C5.16760223 82.75536697 5.16760223 82.75536697 3.23196411 82.75115967 C1.82244779 82.75823844 0.41293242 82.76550806 -0.99658203 82.77294922 C-2.47469068 82.77351311 -3.95279988 82.7731972 -5.4309082 82.77206421 C-9.45137146 82.77148883 -13.47171612 82.78327292 -17.49215174 82.79721212 C-21.69087789 82.80968879 -25.88960656 82.81088756 -30.08834839 82.81326294 C-38.04273435 82.81948674 -45.99706553 82.8359097 -53.95142734 82.85596192 C-63.0057073 82.87829296 -72.05998984 82.8893073 -81.11429048 82.89935279 C-99.74289141 82.92027517 -118.3714413 82.95546859 -137 83 Z " fill="#1E242B" transform="translate(475,366)"/>
<path d="M0 0 C0.96956131 -0.00839905 0.96956131 -0.00839905 1.95870972 -0.01696777 C4.07036249 -0.02893699 6.18131579 -0.02256755 8.29296875 -0.01171875 C9.0146524 -0.00989594 9.73633606 -0.00807312 10.47988892 -0.00619507 C64.5837686 0.22410443 117.23388319 21.33734147 157.48046875 57.30078125 C158.02687012 57.78546875 158.57327148 58.27015625 159.13623047 58.76953125 C170.87918365 69.22889691 181.21266458 80.58876142 190.48046875 93.30078125 C191.2590625 94.36039062 192.03765625 95.42 192.83984375 96.51171875 C215.95287645 129.01724181 236.09084272 177.43928471 232.48046875 218.30078125 C230.79296875 220.98828125 230.79296875 220.98828125 228.48046875 222.30078125 C225.98046875 222.86328125 225.98046875 222.86328125 223.48046875 222.30078125 C220.12481033 219.31312255 219.21200616 216.85053424 218.86328125 212.51171875 C218.76699429 210.56689105 218.68178357 208.62149501 218.60546875 206.67578125 C216.02502366 165.69316485 199.76319172 126.41300542 174.48046875 94.30078125 C173.83207031 93.44742188 173.18367187 92.5940625 172.515625 91.71484375 C153.98412611 68.02582597 129.93517007 50.2031917 103.48046875 36.30078125 C102.82916992 35.95805176 102.17787109 35.61532227 101.50683594 35.26220703 C81.71346119 25.02239528 60.37478357 19.04139666 38.48046875 15.30078125 C37.74376953 15.17477539 37.00707031 15.04876953 36.24804688 14.91894531 C24.97297534 13.09392173 13.58841638 12.95101397 2.19067383 12.81738281 C0.97919678 12.79256836 -0.23228027 12.76775391 -1.48046875 12.7421875 C-2.57149902 12.72873291 -3.6625293 12.71527832 -4.78662109 12.70141602 C-7.51953125 12.30078125 -7.51953125 12.30078125 -9.40478516 10.99584961 C-10.51953125 9.30078125 -10.51953125 9.30078125 -10.39453125 5.73828125 C-8.87088001 -0.24749146 -5.49499096 0.03997852 0 0 Z " fill="#1C2228" transform="translate(457.51953125,227.69921875)"/>
<path d="M0 0 C34.00154543 0.08208803 67.39661399 11.71977446 94.42700195 32.31835938 C98.67275665 35.38358716 101.81932667 35.97194802 106.9777832 36.15820312 C111.49977539 36.60337334 114.21426081 39.17885252 117.05200195 42.50585938 C118.2402684 45.38271499 118.34101039 47.01565879 118.42700195 50.06835938 C118.86145212 55.66702853 121.18137733 58.23932704 124.7902832 62.37304688 C139.95631127 80.99799362 148.97670882 104.98021176 153.23950195 128.38085938 C153.37227539 129.09371094 153.50504883 129.8065625 153.6418457 130.54101562 C154.31622213 134.89212926 154.41730097 139.29761737 154.55200195 143.69335938 C154.60807617 145.48193359 154.60807617 145.48193359 154.6652832 147.30664062 C154.23950195 150.38085938 154.23950195 150.38085938 152.4152832 152.31054688 C149.35217605 153.81735362 147.46612115 153.29273002 144.23950195 152.38085938 C141.79695663 149.93831405 141.88549421 148.97638597 141.5637207 145.60351562 C141.46091797 144.62447266 141.35811523 143.64542969 141.25219727 142.63671875 C141.14488281 141.58291016 141.03756836 140.52910156 140.92700195 139.44335938 C137.88089359 112.90661273 128.64970591 83.79106333 109.23950195 64.38085938 C107.8460265 64.24884591 106.44931744 64.15027904 105.05200195 64.06835938 C99.48928089 63.49351539 96.02732439 61.53857611 92.42700195 57.19335938 C91.23950195 54.38085938 91.23950195 54.38085938 91.33325195 52.41210938 C91.44898705 49.67304538 91.2576976 47.94883876 90.23950195 45.38085938 C86.06122164 41.28731797 81.2612043 38.34144897 76.23950195 35.38085938 C75.51311523 34.95095703 74.78672852 34.52105469 74.03833008 34.078125 C51.93616179 21.25388338 28.28509236 14.44416223 2.80273438 13.23901367 C-4.13662699 12.81747777 -4.13662699 12.81747777 -7.4284668 10.51367188 C-8.76049805 8.38085938 -8.76049805 8.38085938 -8.63549805 5.25585938 C-7.08335079 0.15594696 -5.00988582 0.10148838 0 0 Z " fill="#1C2128" transform="translate(462.760498046875,296.619140625)"/>
<path d="M0 0 C4.49144303 1.49714768 6.86214167 4.95918613 9 9 C9.66185393 11.83257492 9.65699362 14.53529717 9.60127258 17.43455505 C9.60768077 18.66859222 9.60768077 18.66859222 9.61421841 19.92755944 C9.62242109 22.67028677 9.59500952 25.41146752 9.56762695 28.15405273 C9.56621589 30.12550317 9.5670096 32.09695624 9.56983948 34.06840515 C9.57127275 39.41102646 9.54189688 44.75308533 9.50696969 50.09557605 C9.4756917 55.68226433 9.4727743 61.26896582 9.46684265 66.85572815 C9.4513085 77.43082708 9.41028563 88.00566725 9.3600952 98.5806523 C9.30418857 110.62166142 9.27671188 122.66268297 9.25161803 134.70378959 C9.19936957 159.46933646 9.11143541 184.23465372 9 209 C5.90882998 204.36324497 5.85793467 200.63245314 5.87542725 195.24542236 C5.8740171 194.44742179 5.87260695 193.64942121 5.87115407 192.8272388 C5.86749433 190.14424841 5.87084051 187.46131065 5.87402344 184.77832031 C5.87262896 182.85822508 5.87072984 180.93813016 5.86836243 179.01803589 C5.86386167 174.87814334 5.86200926 170.73826071 5.86190033 166.59836578 C5.86076118 160.0516152 5.8479315 153.50492117 5.83233643 146.95819092 C5.82976357 145.8538166 5.82719072 144.74944228 5.8245399 143.61160207 C5.81927321 141.35306545 5.81398773 139.09452887 5.80868387 136.83599234 C5.77355911 121.59182473 5.74702239 106.34772704 5.74951172 91.10351562 C5.75110001 80.82461495 5.73507104 70.54590666 5.69880509 60.26706767 C5.68033762 54.82688474 5.67100916 49.38702304 5.68328094 43.94681549 C5.69471514 38.82817865 5.6830195 33.71011689 5.65364647 28.59155655 C5.64700438 26.71426305 5.64887529 24.83691693 5.65994453 22.95964432 C5.67382 20.39324706 5.65691832 17.82879033 5.63250732 15.26251221 C5.6438627 14.52232259 5.65521808 13.78213297 5.66691756 13.01951337 C5.55874517 7.15755117 3.60151413 4.36723868 0 0 Z " fill="#34393E" transform="translate(424,511)"/>
<path d="M0 0 C0.33 0 0.66 0 1 0 C1.85298376 3.67387495 2.10789471 7.0447393 2.0625 10.8125 C2.05347656 11.78832031 2.04445313 12.76414062 2.03515625 13.76953125 C2.02355469 14.50558594 2.01195312 15.24164063 2 16 C1.01 16 0.02 16 -1 16 C-1.02712153 14.083412 -1.04645097 12.1667127 -1.0625 10.25 C-1.07410156 9.18265625 -1.08570313 8.1153125 -1.09765625 7.015625 C-1.01510087 4.46631499 -0.74617558 2.42066409 0 0 Z " fill="#282B2F" transform="translate(688,430)"/>
<path d="M0 0 C1.485 0.99 1.485 0.99 3 2 C3.1875 5.125 3.1875 5.125 3 8 C2.01 8.33 1.02 8.66 0 9 C0 6.03 0 3.06 0 0 Z " fill="#232A30" transform="translate(614,431)"/>
</svg>
